<?xml version="1.0" encoding="UTF-8"?>
<svg id="_Слой_2" data-name="Слой 2" xmlns="http://www.w3.org/2000/svg" xmlns:xlink="http://www.w3.org/1999/xlink" viewBox="0 0 723.32 310.69">
  <defs>
    <linearGradient id="_Безымянный_градиент_24" data-name="Безымянный градиент 24" x1="-7.98" y1="155.35" x2="724.76" y2="155.35" gradientUnits="userSpaceOnUse">
      <stop offset="0" stop-color="#db093d"/>
      <stop offset=".05" stop-color="#af1643"/>
      <stop offset=".1" stop-color="#832349"/>
      <stop offset=".16" stop-color="#5d2e4e"/>
      <stop offset=".22" stop-color="#3e3753"/>
      <stop offset=".28" stop-color="#273e56"/>
      <stop offset=".34" stop-color="#164459"/>
      <stop offset=".41" stop-color="#0c475a"/>
      <stop offset=".5" stop-color="#09485b"/>
      <stop offset=".59" stop-color="#0c475a"/>
      <stop offset=".66" stop-color="#164459"/>
      <stop offset=".72" stop-color="#273e56"/>
      <stop offset=".78" stop-color="#3e3753"/>
      <stop offset=".84" stop-color="#5d2e4e"/>
      <stop offset=".9" stop-color="#832349"/>
      <stop offset=".95" stop-color="#af1643"/>
      <stop offset="1" stop-color="#db093d"/>
    </linearGradient>
    <linearGradient id="_Безымянный_градиент_3" data-name="Безымянный градиент 3" x1="30.29" y1="107.44" x2="352.26" y2="107.44" gradientUnits="userSpaceOnUse">
      <stop offset="0" stop-color="#db093d"/>
      <stop offset="1" stop-color="#09485b"/>
    </linearGradient>
    <linearGradient id="_Безымянный_градиент_2" data-name="Безымянный градиент 2" x1="371.06" y1="203.28" x2="693.03" y2="203.28" gradientUnits="userSpaceOnUse">
      <stop offset="0" stop-color="#09485b"/>
      <stop offset="1" stop-color="#db093d"/>
    </linearGradient>
  </defs>
  <g id="work">
    <g>
      <path d="M688.49,57.24c-26.16-32.15-63.26-52.18-104.48-56.42-41.2-4.22-81.6,7.85-113.72,34L221.61,237.25c-13.62,11.09-29.9,18.64-47.09,21.85-13.26,2.46-26.62,2.4-39.7-.17-33.14-4.96-63.26-22.13-84.59-48.3-22.8-28.02-33.32-63.22-29.63-99.15,2.51-24.4,11.38-47.15,25.58-66.38C20.5,70.34,4.54,103.44,.83,139.72c-4.22,41.22,7.85,81.6,34.01,113.72,26.16,32.15,63.26,52.18,104.47,56.42,41.22,4.24,81.6-7.84,113.73-34l3.56-2.94,147.14-119.71c.7-1.04,1.74-1.9,3.03-2.48l94.91-77.27c13.62-11.09,29.91-18.65,47.09-21.85,12.97-2.4,26.12-2.37,39.09,.11,33.47,4.8,63.86,22.03,85.35,48.47,22.85,28.03,33.4,63.29,29.71,99.28-2.42,23.6-10.78,45.65-24.16,64.49,24.73-25.03,40.1-57.48,43.75-92.97,4.23-41.21-7.84-81.6-34-113.72Z" style="fill: url(#_Безымянный_градиент_24);"/>
      <path d="M208.42,64.68c12.88,7.56,35.74,27.42,57.85,46.61,16.61,14.42,38.77,33.67,46.76,38.13,7.24-5.89,29.22-23.77,39.24-31.93-16.07-12.49-32.08-25.06-48.08-37.63-22.31-17.52-45.39-35.63-68.22-53.22C215.28,10.71,192.41,2.69,161.82,.65c-2.23-.15-4.45-.2-6.68-.2-1.94,0-3.78,.05-5.66,.15-1.65,.06-3.21,.15-4.71,.29-25.13,2.07-48.76,11.61-68.42,27.59-25.86,21.05-41.98,50.9-45.38,84.05-3.41,33.17,6.3,65.66,27.35,91.52,2.97,3.65,6.13,7.11,9.46,10.37-30.14-44.64-21.72-105.9,20.84-140.56,33.94-27.63,82.07-31.32,119.81-9.18Z" style="fill: url(#_Безымянный_градиент_3);"/>
      <path d="M578.55,309.8c25.14-2.08,48.77-11.61,68.42-27.59,25.86-21.05,41.98-50.9,45.38-84.05,3.41-33.16-6.3-65.66-27.35-91.52-2.97-3.64-6.12-7.09-9.44-10.34,13.79,20.4,19.94,44.77,17.41,69.57-2.87,28-16.46,53.2-38.28,70.97-33.93,27.62-82.08,31.33-119.8,9.18-12.88-7.56-35.73-27.41-57.83-46.6-16.61-14.43-38.79-33.68-46.78-38.15-7.23,5.89-29.22,23.77-39.24,31.93,16.07,12.49,32.08,25.06,48.08,37.63,22.31,17.52,45.39,35.63,68.22,53.22,20.68,15.93,43.55,23.95,74.14,25.99,4.17,.29,8.28,.28,12.34,.05,1.67-.05,3.22-.14,4.72-.29Z" style="fill: url(#_Безымянный_градиент_2);"/>
    </g>
  </g>
</svg>