<?xml version="1.0" encoding="utf-8"?>
<!-- Generator: Adobe Illustrator 27.0.0, SVG Export Plug-In . SVG Version: 6.00 Build 0)  -->
<svg version="1.1" id="Слой_1" xmlns="http://www.w3.org/2000/svg" xmlns:xlink="http://www.w3.org/1999/xlink" x="0px" y="0px"
	 viewBox="0 0 136 110" style="enable-background:new 0 0 136 110;" xml:space="preserve">
<style type="text/css">
	.st0{fill:url(#SVGID_1_);}
</style>
<linearGradient id="SVGID_1_" gradientUnits="userSpaceOnUse" x1="0.4989" y1="55" x2="135.5011" y2="55">
	<stop  offset="0" style="stop-color:#09485B"/>
	<stop  offset="1" style="stop-color:#DB093D"/>
</linearGradient>
<path class="st0" d="M113.8,109.5c-0.8,0-1.4-0.6-1.5-1.4c-0.1-0.8,0.5-1.6,1.4-1.6c4.2-0.4,8.2-0.4,12.4-0.4l1.6,0
	c0.4,0,0.9,0,1.5,0c1,0,2.3,0.1,3.2,0c-0.3,0-0.5-0.1-0.7-0.2c-7.7-5-15.6-9.8-23.4-14.4c-14.1-8.6-28.8-17.4-41.9-27.3
	C41.6,45.5,16.1,26.3,0.7,2.8C0.3,2.1,0.5,1.2,1.2,0.7c0.7-0.5,1.6-0.3,2.1,0.4c15.1,23,40.4,42.1,64.9,60.6
	c13,9.8,27.6,18.6,41.6,27.1c6.9,4.2,14,8.5,20.9,12.9c-0.5-1.1-0.9-2.2-1.1-3.4c-0.2-0.8,0.3-1.6,1.1-1.8c0.8-0.2,1.6,0.3,1.8,1.1
	c0.3,1.2,0.8,2.5,1.4,3.7c0.4,0.9,0.7,1.7,1.1,2.7l0,0.1c0.5,1.3,0.8,2.6,0.3,3.6c-0.3,0.5-0.7,0.9-1.3,1c-1.4,0.4-3.3,0.3-4.9,0.3
	c-0.5,0-1,0-1.4,0l-1.6,0c-4.1,0-8,0-12.1,0.4C113.9,109.5,113.8,109.5,113.8,109.5z"/>
</svg>
