<?xml version="1.0" encoding="UTF-8"?>
<svg id="_Слой_2" data-name="Слой 2" xmlns="http://www.w3.org/2000/svg" viewBox="0 0 512 512">
  <g id="work">
    <g>
      <path d="M253.42,253.57c2.23,1.78,3.56,1.42,5.59-.2,28.91-23.06,57.89-46.03,86.85-69.03,.9-.71,1.69-1.56,3-2.78H163.23c1.09,1.02,1.54,1.52,2.06,1.94,29.39,23.34,58.81,46.65,88.14,70.07Z" style="fill: #fff;"/>
      <path d="M370.44,192.86c-2.14,1.68-3.64,2.85-5.13,4.04-33.5,26.6-66.99,53.2-100.49,79.79-6.61,5.25-10.85,5.23-17.35,.07-28.3-22.49-56.61-44.97-84.92-67.45-6.76-5.37-13.53-10.71-20.79-16.45-.16,1.77-.33,2.81-.34,3.86-.01,42.24-.02,84.48,0,126.71,0,5.84,1.33,7.02,7.56,7.02,71.35,0,142.7,0,214.05,0,6.6,0,7.74-1.11,7.74-7.67,.01-41.82,0-83.65,0-125.47,0-1.26-.18-2.53-.32-4.44Z" style="fill: #fff;"/>
      <path d="M256,0C114.62,0,0,114.62,0,256s114.62,256,256,256,256-114.61,256-256S397.38,0,256,0Zm136.73,323.31c0,17.96-10.91,28.95-28.81,28.96-36.02,.03-72.03,0-108.05,0-35.6,0-71.21-.4-106.81,.17-18.27,.29-30-13.17-29.8-29.99,.53-44.57,.17-89.16,.18-133.74,0-18.24,10.84-29.16,29.02-29.16,71.76-.02,143.51-.02,215.27,0,18.18,0,28.99,10.91,28.99,29.19,0,44.86,.01,89.71,0,134.57Z" style="fill: #fff;"/>
    </g>
  </g>
</svg>