<svg id="_Слой_2" data-name="Слой 2" xmlns="http://www.w3.org/2000/svg" viewBox="0 0 512 512">
  <g id="work">
    <path
      d="M256,0C114.62,0,0,114.62,0,256s114.62,256,256,256,256-114.61,256-256S397.38,0,256,0Zm131.57,359.99c-9.21,9.15-17.96,18.86-30.03,24.58-16.26,7.71-32.99,9.19-50.27,4.17-45.98-13.35-84.02-39.54-117.39-73.07-25.37-25.49-46.13-54.26-60.34-87.48-5.58-13.05-10.79-26.26-10.25-47.4,.39-12.6,7.62-28.84,21.04-42.4,4.4-4.45,8.79-8.9,13.27-13.26,6.48-6.3,12.19-6.41,18.5-.15,15.36,15.24,30.66,30.53,45.89,45.89,6.27,6.32,6.15,12.05-.22,18.5-8.43,8.54-16.99,16.95-25.43,25.48-10.48,10.59-11.18,22.06-2.24,34.06,21.37,28.69,46.63,53.4,75.72,74.21,11.29,8.08,23.12,7.22,32.94-2.57,8.26-8.23,16.35-16.63,24.59-24.89,6.71-6.73,12.49-6.76,19.22-.06,15.08,15.03,30.13,30.1,45.14,45.21,6.75,6.8,6.7,12.39-.13,19.19Z"
      style="fill: #fff;" />
  </g>
</svg>